<?xml version="1.0" encoding="utf-8"?>
<!-- Generator: Adobe Illustrator 16.0.0, SVG Export Plug-In . SVG Version: 6.00 Build 0)  -->
<!DOCTYPE svg PUBLIC "-//W3C//DTD SVG 1.1//EN" "http://www.w3.org/Graphics/SVG/1.1/DTD/svg11.dtd">
<svg version="1.1" xmlns="http://www.w3.org/2000/svg" xmlns:xlink="http://www.w3.org/1999/xlink" x="0px" y="0px"
	 width="1159.441px" height="434.978px" viewBox="0 0 1159.441 434.978" enable-background="new 0 0 1159.441 434.978"
	 xml:space="preserve">
<g id="Layer_2">
	<polygon fill="#004177" points="309.862,195.021 181.406,420.259 56.029,195.021 	"/>
	<polygon fill="#46ABFF" points="40.529,195.021 114.029,68.521 130.029,97.021 170.529,25.521 213.529,98.021 223.529,80.021 
		291.029,195.021 	"/>
	<polygon fill="#005BA7" points="21.029,195.021 122.029,370.021 225.029,195.021 	"/>
	<polygon fill="#0264B8" points="129.279,195.021 189.279,301.521 248.779,195.021 	"/>
</g>
<g id="Layer_3">
	<g>
		<path fill="#757575" d="M379.394,277.814h-20.625V121.408h20.625V277.814z"/>
		<path fill="#757575" d="M460.604,263.742c7.09,0,13.283-2.148,18.584-6.445c5.299-4.297,8.234-9.668,8.809-16.113h18.799
			c-0.359,6.66-2.65,12.998-6.875,19.014c-4.227,6.016-9.866,10.814-16.919,14.395c-7.055,3.58-14.521,5.371-22.397,5.371
			c-15.828,0-28.413-5.279-37.759-15.844c-9.346-10.562-14.019-25.012-14.019-43.346v-3.33c0-11.314,2.076-21.377,6.23-30.185
			c4.152-8.809,10.114-15.646,17.886-20.518c7.77-4.869,16.954-7.305,27.554-7.305c13.033,0,23.864,3.904,32.495,11.709
			c8.629,7.807,13.229,17.939,13.804,30.4h-18.799c-0.574-7.519-3.421-13.696-8.54-18.53c-5.121-4.834-11.44-7.251-18.96-7.251
			c-10.098,0-17.923,3.636-23.472,10.903c-5.551,7.27-8.325,17.778-8.325,31.528v3.76c0,13.393,2.756,23.705,8.271,30.938
			C442.485,260.126,450.362,263.742,460.604,263.742z"/>
		<path fill="#757575" d="M577.372,279.962c-15.756,0-28.574-5.172-38.457-15.521c-9.883-10.348-14.824-24.188-14.824-41.52v-3.652
			c0-11.529,2.202-21.822,6.606-30.883c4.404-9.059,10.562-16.148,18.477-21.27c7.912-5.119,16.489-7.681,25.728-7.681
			c15.109,0,26.855,4.979,35.234,14.932c8.379,9.955,12.568,24.207,12.568,42.753v8.271h-78.74
			c0.285,11.459,3.634,20.717,10.044,27.77c6.408,7.055,14.556,10.58,24.438,10.58c7.018,0,12.961-1.432,17.832-4.297
			c4.869-2.863,9.131-6.66,12.783-11.387l12.139,9.453C611.46,272.48,596.851,279.962,577.372,279.962z M574.901,175.764
			c-8.021,0-14.754,2.919-20.195,8.755c-5.443,5.838-8.809,14.018-10.098,24.545h58.223v-1.504
			c-0.574-10.098-3.295-17.92-8.164-23.471C589.796,178.54,583.208,175.764,574.901,175.764z"/>
		<path fill="#757575" d="M743.876,220.988c0,17.689-4.047,31.941-12.139,42.754c-8.094,10.814-19.051,16.221-32.871,16.221
			c-14.109,0-25.209-4.475-33.301-13.428v55.967h-19.873V161.584h18.154l0.967,12.891c8.092-10.025,19.336-15.039,33.73-15.039
			c13.965,0,25.011,5.264,33.14,15.791c8.127,10.527,12.192,25.173,12.192,43.935V220.988z M724.003,218.732
			c0-13.105-2.793-23.453-8.379-31.044c-5.586-7.59-13.25-11.387-22.988-11.387c-12.031,0-21.055,5.336-27.07,16.006v55.537
			c5.943,10.6,15.039,15.898,27.285,15.898c9.523,0,17.097-3.775,22.72-11.332C721.191,244.855,724.003,233.628,724.003,218.732z"/>
		<path fill="#757575" d="M817.353,279.962c-15.756,0-28.574-5.172-38.457-15.521c-9.883-10.348-14.824-24.188-14.824-41.52v-3.652
			c0-11.529,2.202-21.822,6.606-30.883c4.404-9.059,10.562-16.148,18.477-21.27c7.912-5.119,16.489-7.681,25.728-7.681
			c15.109,0,26.855,4.979,35.234,14.932c8.379,9.955,12.568,24.207,12.568,42.753v8.271h-78.74
			c0.285,11.459,3.634,20.717,10.044,27.77c6.408,7.055,14.556,10.58,24.438,10.58c7.018,0,12.961-1.432,17.832-4.297
			c4.869-2.863,9.131-6.66,12.783-11.387l12.139,9.453C851.44,272.48,836.831,279.962,817.353,279.962z M814.882,175.764
			c-8.021,0-14.754,2.919-20.195,8.755c-5.443,5.838-8.809,14.018-10.098,24.545h58.223v-1.504
			c-0.574-10.098-3.295-17.92-8.164-23.471C829.776,178.54,823.188,175.764,814.882,175.764z"/>
		<path fill="#757575" d="M957.431,277.814c-1.146-2.291-2.078-6.373-2.793-12.246c-9.238,9.598-20.268,14.395-33.086,14.395
			c-11.459,0-20.858-3.238-28.198-9.721c-7.342-6.48-11.011-14.699-11.011-24.654c0-12.102,4.601-21.5,13.804-28.197
			c9.201-6.695,22.146-10.045,38.833-10.045h19.336v-9.131c0-6.945-2.078-12.477-6.23-16.596
			c-4.154-4.117-10.277-6.177-18.369-6.177c-7.09,0-13.035,1.791-17.832,5.371c-4.799,3.582-7.197,7.914-7.197,12.998h-19.98
			c0-5.801,2.058-11.403,6.177-16.812c4.117-5.406,9.703-9.685,16.758-12.837c7.053-3.15,14.806-4.727,23.257-4.727
			c13.391,0,23.883,3.349,31.475,10.044c7.59,6.697,11.529,15.917,11.816,27.661v53.496c0,10.672,1.359,19.158,4.082,25.459v1.719
			H957.431z M924.452,262.667c6.23,0,12.139-1.611,17.725-4.834s9.631-7.412,12.139-12.568v-23.848h-15.576
			c-24.35,0-36.523,7.127-36.523,21.377c0,6.23,2.076,11.102,6.23,14.609C912.599,260.914,917.935,262.667,924.452,262.667z"/>
		<path fill="#757575" d="M1037.782,223.996l-12.461,12.998v40.82h-19.873v-165h19.873v99.794l10.635-12.783l36.201-38.242h24.17
			l-45.225,48.554l50.488,67.676h-23.311L1037.782,223.996z"/>
	</g>
</g>
<g id="Layer_4">
</g>
</svg>
